Coordinates
version=1
nRows=13
nColumns=27
inDegrees=yes

Units are S.I. units (second, meters, Newtons, ...)
If the header above contains a line with 'inDegrees', this indicates whether rotational values are in degrees (yes) or radians (no).

endheader
time	pelvis_rotation	pelvis_tilt	pelvis_list	pelvis_tx	pelvis_ty	pelvis_tz	hip_flexion_r	hip_adduction_r	hip_rotation_r	knee_angle_r	knee_rotation_r	knee_adduction_r	knee_angle_r_beta	ankle_angle_r	subtalar_angle_r	mtp_angle_r	hip_flexion_l	hip_adduction_l	hip_rotation_l	knee_angle_l	knee_rotation_l	knee_adduction_l	knee_angle_l_beta	ankle_angle_l	subtalar_angle_l	mtp_angle_l
     10.22500000	      4.82198051	      1.15236878	      0.27026897	      0.00342009	      0.90902770	     -1.20070051	      6.93627623	     -4.93282820	    -28.41196021	     11.25707368	      0.00000000	      8.86878324	      0.19647300	      0.92362562	      0.00000000	      0.00000000	      8.27439699	     -4.01755594	    -14.15121441	      9.58599860	      0.00000000	     -6.94039217	      0.16730724	     -2.93873564	      0.00000000	      0.00000000
     10.23000000	      4.65824877	      0.75898608	      0.30089305	      0.00241547	      0.90891774	     -1.20055668	      7.55662285	     -4.95965501	    -27.41667762	     11.56102868	      0.00000000	      8.03328170	      0.20177802	      1.02037754	      0.00000000	      0.00000000	      8.78969834	     -4.03475201	    -13.86687445	      9.75513818	      0.00000000	     -6.35238972	      0.17025928	     -2.94719944	      0.00000000	      0.00000000
     10.23500000	      4.68221776	      1.17205299	      0.43975589	      0.00383762	      0.90901179	     -1.20085861	      7.01053177	     -5.14546578	    -28.34222486	     11.49217978	      0.00000000	      8.89467857	      0.20057638	      1.06256482	      0.00000000	      0.00000000	      8.19460824	     -3.86400848	    -14.41921640	      9.55744772	      0.00000000	     -7.02285834	      0.16680893	     -3.00031173	      0.00000000	      0.00000000
     10.24000000	      4.67351640	      0.71709851	      0.24819562	      0.00278311	      0.90894341	     -1.20048403	      7.55808417	     -4.89755037	    -27.44315712	     11.53107761	      0.00000000	      8.02290852	      0.20125527	      0.99234788	      0.00000000	      0.00000000	      8.86665812	     -4.10516766	    -13.92529689	      9.86133041	      0.00000000	     -6.44400639	      0.17211268	     -2.85687446	      0.00000000	      0.00000000
     10.24500000	      4.81267590	      1.09297159	      0.28243360	      0.00411198	      0.90907875	     -1.20071927	      6.97935966	     -4.95981637	    -28.43664161	     11.33031085	      0.00000000	      8.88100131	      0.19775123	      0.98882623	      0.00000000	      0.00000000	      8.32084872	     -4.01596606	    -14.17997760	      9.64854176	      0.00000000	     -6.95420926	      0.16839882	     -2.88653707	      0.00000000	      0.00000000
     10.25000000	      4.82279426	      1.06941989	      0.28050988	      0.00426290	      0.90907211	     -1.20070182	      6.99433781	     -4.95871879	    -28.43823081	     11.33911285	      0.00000000	      8.88499426	      0.19790485	      1.00644109	      0.00000000	      0.00000000	      8.36258361	     -4.02597171	    -14.19878411	      9.70308423	      0.00000000	     -6.99521497	      0.16935077	     -2.84521781	      0.00000000	      0.00000000
     10.25500000	      4.71381923	      0.66145020	      0.17831027	      0.00324737	      0.90896496	     -1.20036303	      7.55956290	     -4.81155568	    -27.45114305	     11.50566397	      0.00000000	      8.00582344	      0.20081172	      1.05697760	      0.00000000	      0.00000000	      8.97847366	     -4.19554645	    -13.90546187	     10.01223940	      0.00000000	     -6.47167787	      0.17474654	     -2.80037510	      0.00000000	      0.00000000
     10.26000000	      4.82572452	      1.03521238	      0.26201665	      0.00457071	      0.90907627	     -1.20063920	      7.02585288	     -4.94435313	    -28.45504967	     11.38141757	      0.00000000	      8.89522934	      0.19864321	      1.03807321	      0.00000000	      0.00000000	      8.40851552	     -4.05540965	    -14.22743360	      9.76314580	      0.00000000	     -7.05272992	      0.17039904	     -2.79458714	      0.00000000	      0.00000000
     10.26500000	      4.82057881	      1.02405143	      0.26030920	      0.00474734	      0.90908428	     -1.20060909	      7.02366820	     -4.93585474	    -28.43452666	     11.37402119	      0.00000000	      8.88148014	      0.19851412	      1.05429427	      0.00000000	      0.00000000	      8.41957501	     -4.06563827	    -14.24172224	      9.78599171	      0.00000000	     -7.06200384	      0.17079778	     -2.77905634	      0.00000000	      0.00000000
     10.27000000	      4.65837694	      0.62726697	      0.28991183	      0.00377031	      0.90897184	     -1.20043180	      7.62205640	     -4.94598761	    -27.40800155	     11.62584837	      0.00000000	      8.03374632	      0.20290933	      1.12347288	      0.00000000	      0.00000000	      8.92283250	     -4.08062216	    -13.93948418	      9.92198273	      0.00000000	     -6.48146949	      0.17317127	     -2.79620463	      0.00000000	      0.00000000
     10.27500000	      4.75612114	      0.98152361	      0.25532045	      0.00504118	      0.90905843	     -1.20051966	      7.09498988	     -4.93330157	    -28.40327996	     11.45956081	      0.00000000	      8.90689111	      0.20000707	      1.11769927	      0.00000000	      0.00000000	      8.49085393	     -4.10737828	    -14.43545812	      9.89841352	      0.00000000	     -7.19751961	      0.17275991	     -2.69617149	      0.00000000	      0.00000000
     10.28000000	      4.82557193	      0.95741144	      0.23883038	      0.00517577	      0.90908938	     -1.20051316	      7.07985253	     -4.91515795	    -28.42221705	     11.41659399	      0.00000000	      8.88481089	      0.19925715	      1.10687780	      0.00000000	      0.00000000	      8.50652942	     -4.10562421	    -14.27996101	      9.87479081	      0.00000000	     -7.13494449	      0.17234761	     -2.70391940	      0.00000000	      0.00000000
     10.28500000	      4.67028624	      0.55469455	      0.28737936	      0.00412933	      0.90896458	     -1.20035777	      7.70816935	     -4.95816634	    -27.42726250	     11.71005545	      0.00000000	      8.02954089	      0.20437902	      1.18748522	      0.00000000	      0.00000000	      9.03031388	     -4.10049196	    -13.96640037	     10.03056812	      0.00000000	     -6.54038578	      0.17506644	     -2.72395819	      0.00000000	      0.00000000
